<?xml version="1.0" encoding="UTF-8"?>
<svg version="1.1" xmlns="http://www.w3.org/2000/svg" width="31.88" height="32" viewBox="0 0 100 100">
<path d="M0 0 C30.42512407 5.08287025 30.42512407 5.08287025 37 12 C37.495 13.485 37.495 13.485 38 15 C38.66 15 39.32 15 40 15 C42.50318203 20.79622116 42.28908764 26.37159777 42.265625 32.56640625 C42.26753845 33.67805649 42.2694519 34.78970673 42.27142334 35.93504333 C42.27278124 38.27920763 42.26911243 40.62337955 42.26074219 42.9675293 C42.25002721 46.5533944 42.26065635 50.13875969 42.2734375 53.72460938 C42.27211603 56.00520944 42.26955391 58.28580919 42.265625 60.56640625 C42.26967346 61.63734024 42.27372192 62.70827423 42.27789307 63.81166077 C42.26843658 65.31363258 42.26843658 65.31363258 42.25878906 66.84594727 C42.25719788 67.7227565 42.25560669 68.59956573 42.25396729 69.50294495 C41.84723954 73.50197015 40.78207227 76.21792773 37.9375 79.0625 C27.50517324 85.94339638 16.2963151 88.50768028 3.9375 88.3125 C2.91333984 88.31572266 1.88917969 88.31894531 0.83398438 88.32226562 C-8.14321554 88.2591671 -15.55996279 87.10622657 -23.5625 82.875 C-24.59503906 82.33617188 -25.62757812 81.79734375 -26.69140625 81.2421875 C-27.45324219 80.83226563 -28.21507812 80.42234375 -29 80 C-29 79.34 -29 78.68 -29 78 C-29.99 77.67 -30.98 77.34 -32 77 C-34.44801198 73.32798203 -34.45366944 70.34102604 -34.62890625 66.07421875 C-34.66633438 65.28069504 -34.70376251 64.48717133 -34.74232483 63.66960144 C-35.09938727 55.23340266 -35.13646831 46.80524738 -34.9777832 38.36401367 C-34.95061925 36.64346536 -34.93658462 34.92266612 -34.93481445 33.2019043 C-34.93171514 30.66070671 -34.89008498 28.12268295 -34.83984375 25.58203125 C-34.84580063 24.82154984 -34.85175751 24.06106842 -34.8578949 23.27754211 C-34.69121041 17.9967699 -33.18398364 15.28159213 -29.56716919 11.45384216 C-24.99502908 7.21232816 -20.55683615 5.29613379 -14.5625 3.75 C-13.30566406 3.41484375 -12.04882812 3.0796875 -10.75390625 2.734375 C-7.06337215 2.01239746 -3.74910343 1.86454852 0 2 C0 1.34 0 0.68 0 0 Z " fill="#C5331A" transform="translate(40,5)"/>
<path d="M0 0 C1.98665814 2.75075742 2.20393983 4.93374978 1.9921875 8.296875 C1.36129216 11.65270126 0.18899076 12.99124624 -2.375 15.25 C-13.0579726 21.78064931 -23.35685265 23.75131747 -35.75 23.625 C-36.91144531 23.63660156 -38.07289062 23.64820313 -39.26953125 23.66015625 C-40.38457031 23.65628906 -41.49960937 23.65242188 -42.6484375 23.6484375 C-43.65310059 23.64505371 -44.65776367 23.64166992 -45.69287109 23.63818359 C-48.78348005 23.19088082 -50.01993432 22.23396442 -52.375 20.25 C-53.48875 19.79625 -54.6025 19.3425 -55.75 18.875 C-60.03954783 16.95209925 -64.19537572 14.60924857 -66.375 10.25 C-66.94746917 6.09959853 -67.21800591 3.64363982 -65.0234375 0.015625 C-61.57016234 -4.15264545 -58.79120165 -6.59761667 -53.375 -7.75 C-52.405625 -8.100625 -51.43625 -8.45125 -50.4375 -8.8125 C-32.82657053 -14.20360086 -14.60807877 -10.76384752 0 0 Z " fill="#FBF4F3" transform="translate(76.375,18.75)"/>
<path d="M0 0 C1.04027344 -0.01417969 2.08054687 -0.02835938 3.15234375 -0.04296875 C6.01296613 0.18357718 7.63920151 0.71016381 10.0625 2.1875 C8.23912109 2.27837891 8.23912109 2.27837891 6.37890625 2.37109375 C4.79425772 2.45548332 3.20962298 2.5401321 1.625 2.625 C0.82255859 2.66431641 0.02011719 2.70363281 -0.80664062 2.74414062 C-4.68989561 2.5929296 -4.68989561 2.5929296 -7.9375 4.1875 C-6.92429687 4.70699219 -5.91109375 5.22648437 -4.8671875 5.76171875 C-3.5154249 6.46576177 -2.16387359 7.17021059 -0.8125 7.875 C-0.14734375 8.21466797 0.5178125 8.55433594 1.203125 8.90429688 C4.56383242 10.66702086 7.47588396 12.43449853 10.3125 14.96875 C12.97750103 17.62197191 12.97750103 17.62197191 16.9375 17 C17.96875 16.731875 19 16.46375 20.0625 16.1875 C16.59912044 20.18370718 13.3288024 21.85985562 8.01806641 22.39257812 C5.73764904 22.4918809 3.46997044 22.50952617 1.1875 22.5 C0.04087891 22.52416992 0.04087891 22.52416992 -1.12890625 22.54882812 C-6.69929105 22.5535568 -10.82459313 21.39455206 -15.9375 19.1875 C-15.9375 18.5275 -15.9375 17.8675 -15.9375 17.1875 C-17.2575 16.8575 -18.5775 16.5275 -19.9375 16.1875 C-20.75 13 -20.75 13 -20.9375 9.1875 C-16.05032147 2.46762952 -8.03989108 0.0496903 0 0 Z " fill="#F99351" transform="translate(42.9375,13.8125)"/>
<path d="M0 0 C1.40185547 0.00966797 1.40185547 0.00966797 2.83203125 0.01953125 C4.28416016 0.04466797 4.28416016 0.04466797 5.765625 0.0703125 C6.74917969 0.07933594 7.73273437 0.08835937 8.74609375 0.09765625 C11.16951907 0.12118465 13.59244722 0.15405882 16.015625 0.1953125 C16.015625 0.8553125 16.015625 1.5153125 16.015625 2.1953125 C16.94375 2.2778125 17.871875 2.3603125 18.828125 2.4453125 C22.015625 3.1953125 22.015625 3.1953125 23.953125 4.8828125 C25.44197924 8.12325997 25.15637107 9.84437092 24.015625 13.1953125 C21.765625 15.1328125 21.765625 15.1328125 19.015625 16.1953125 C14.97286262 15.79896325 12.68988882 14.47004111 9.515625 12.0078125 C3.75511383 7.7962001 -2.44577133 4.99317896 -8.984375 2.1953125 C-5.85508322 0.36461347 -3.60794354 -0.04399931 0 0 Z " fill="#DBCB9F" transform="translate(40.984375,15.8046875)"/>
<path d="M0 0 C1.04027344 -0.01417969 2.08054687 -0.02835938 3.15234375 -0.04296875 C6.0625 0.1875 6.0625 0.1875 10.0625 2.1875 C1.6475 2.6825 1.6475 2.6825 -6.9375 3.1875 C-6.9375 4.5075 -6.9375 5.8275 -6.9375 7.1875 C-9.5775 7.1875 -12.2175 7.1875 -14.9375 7.1875 C-14.6075 8.05375 -14.2775 8.92 -13.9375 9.8125 C-12.95018659 13.14468275 -12.77329026 15.73909538 -12.9375 19.1875 C-6.15909705 20.39254941 1.45137206 21.39120931 8.0625 19.1875 C7.0725 18.1975 6.0825 17.2075 5.0625 16.1875 C6.0525 15.1975 7.0425 14.2075 8.0625 13.1875 C8.743125 13.868125 9.42375 14.54875 10.125 15.25 C13.00883751 17.5764842 13.00883751 17.5764842 16.875 16.9375 C17.926875 16.69 18.97875 16.4425 20.0625 16.1875 C16.59912044 20.18370718 13.3288024 21.85985562 8.01806641 22.39257812 C5.73764904 22.4918809 3.46997044 22.50952617 1.1875 22.5 C0.04087891 22.52416992 0.04087891 22.52416992 -1.12890625 22.54882812 C-6.69929105 22.5535568 -10.82459313 21.39455206 -15.9375 19.1875 C-15.9375 18.5275 -15.9375 17.8675 -15.9375 17.1875 C-17.2575 16.8575 -18.5775 16.5275 -19.9375 16.1875 C-20.75 13 -20.75 13 -20.9375 9.1875 C-16.05032147 2.46762952 -8.03989108 0.0496903 0 0 Z " fill="#C08A64" transform="translate(42.9375,13.8125)"/>
<path d="M0 0 C0.66 0.33 1.32 0.66 2 1 C2 1.66 2 2.32 2 3 C0.68 3.33 -0.64 3.66 -2 4 C-2 4.99 -2 5.98 -2 7 C-0.02 7 1.96 7 4 7 C4 8.32 4 9.64 4 11 C3.01 11.66 2.02 12.32 1 13 C4.8726362 15.46440486 8.76960042 17.25807076 13 19 C13 19.66 13 20.32 13 21 C11.72125 21.061875 10.4425 21.12375 9.125 21.1875 C8.04605469 21.23970703 8.04605469 21.23970703 6.9453125 21.29296875 C6.30335937 21.19628906 5.66140625 21.09960938 5 21 C4.34 20.01 3.68 19.02 3 18 C0.56306689 17.63583953 0.56306689 17.63583953 -2.125 17.8125 C-3.03507812 17.83957031 -3.94515625 17.86664063 -4.8828125 17.89453125 C-5.58148438 17.92933594 -6.28015625 17.96414062 -7 18 C-7.66 16.68 -8.32 15.36 -9 14 C-10.98 14 -12.96 14 -15 14 C-15 12.68 -15 11.36 -15 10 C-11.7 9.67 -8.4 9.34 -5 9 C-5.680625 8.4225 -6.36125 7.845 -7.0625 7.25 C-9 5 -9 5 -8.875 2.8125 C-7.05883347 -0.94955924 -3.71430776 -0.15476282 0 0 Z " fill="#DF4D21" transform="translate(29,66)"/>
<path d="M0 0 C4.55737263 0.43820891 7.57653445 0.85041169 11 4 C10.67 5.32 10.34 6.64 10 8 C10.763125 7.649375 11.52625 7.29875 12.3125 6.9375 C17.36755261 5.65231713 21.8764457 6.32536829 27 7 C27 7.66 27 8.32 27 9 C22.38 9.66 17.76 10.32 13 11 C13 11.66 13 12.32 13 13 C13.66 13.33 14.32 13.66 15 14 C12 15 12 15 8.8125 13.5625 C7.884375 13.046875 6.95625 12.53125 6 12 C6 10.02 6 8.04 6 6 C4.35 5.67 2.7 5.34 1 5 C0.67 3.35 0.34 1.7 0 0 Z " fill="#DF4C20" transform="translate(13,39)"/>
<path d="M0 0 C30.42512407 5.08287025 30.42512407 5.08287025 37 12 C37.495 13.485 37.495 13.485 38 15 C38.66 15 39.32 15 40 15 C42.44064587 20.64399358 42.19289099 25.97751478 42 32 C41.34 32 40.68 32 40 32 C40.00902344 31.154375 40.01804688 30.30875 40.02734375 29.4375 C39.8431517 22.3901521 39.32323075 17.60506701 34.1484375 12.578125 C30.3797527 9.80985471 26.43089313 8.3875868 22 7 C21.24074219 6.70222656 20.48148438 6.40445312 19.69921875 6.09765625 C10.17562601 2.62434596 -1.23280711 2.84027665 -10.9609375 5.48828125 C-14.58860641 6.39867326 -18.28269896 6.64597133 -22 7 C-15.22165913 3.34890304 -7.67773796 1.4881508 0 2 C0 1.34 0 0.68 0 0 Z " fill="#621D12" transform="translate(40,5)"/>
<path d="M0 0 C0.625 2.3125 0.625 2.3125 1 5 C-1.02211525 8.03317287 -1.67455219 8.85984646 -5 10 C-9.38051965 9.77535797 -11.85404325 7.96618779 -15 5 C-15 4.34 -15 3.68 -15 3 C-9.55326697 -0.29633454 -6.25490443 -1.56372611 0 0 Z " fill="#DADAD9" transform="translate(65,22)"/>
<path d="M0 0 C4.44936709 -0.36075949 4.44936709 -0.36075949 6.8125 1.1875 C8.42525784 3.64907776 8.4334014 5.11065736 8 8 C6.8125 9.8125 6.8125 9.8125 5 11 C2.14519831 11.42822025 0.65507108 11.40659584 -1.8125 9.875 C-3.49106106 7.22464043 -3.20450238 5.06753576 -3 2 C-2.34 1.67 -1.68 1.34 -1 1 C-1 1.99 -1 2.98 -1 4 C-0.01 4 0.98 4 2 4 C2 3.01 2 2.02 2 1 C1.34 0.67 0.68 0.34 0 0 Z " fill="#120705" transform="translate(57,54)"/>
<path d="M0 0 C2.875 -0.125 2.875 -0.125 6 0 C8 2 8 2 8.25 5.5 C8 9 8 9 6 11 C3 11.25 3 11.25 0 11 C-2 9 -2 9 -2.125 5.375 C-2.08375 4.26125 -2.0425 3.1475 -2 2 C-1.67 2.66 -1.34 3.32 -1 4 C0.32 4 1.64 4 3 4 C2.01 2.68 1.02 1.36 0 0 Z " fill="#130806" transform="translate(25,54)"/>
<path d="M0 0 C0.66 0.33 1.32 0.66 2 1 C1.2575 1.721875 0.515 2.44375 -0.25 3.1875 C-5.34697688 8.40031726 -7.5901664 11.5312747 -7.828125 18.92578125 C-7.8668573 19.67337204 -7.9055896 20.42096283 -7.94549561 21.19120789 C-8.06446126 23.5645169 -8.15759107 25.93802356 -8.25 28.3125 C-8.32641868 29.927816 -8.40452562 31.54305308 -8.484375 33.15820312 C-8.67580712 37.10482287 -8.8440884 41.05182395 -9 45 C-9.33 45 -9.66 45 -10 45 C-10.14906961 40.14377082 -10.25754856 35.28889189 -10.32958984 30.4309082 C-10.35963934 28.78093245 -10.40049264 27.1311148 -10.45263672 25.48168945 C-10.92978057 9.99322587 -10.92978057 9.99322587 -7.125 5.5 C-5.53125 4.08984375 -5.53125 4.08984375 -4 3 C-3.21625 2.360625 -2.4325 1.72125 -1.625 1.0625 C-1.08875 0.711875 -0.5525 0.36125 0 0 Z " fill="#4D150C" transform="translate(16,12)"/>
<path d="M0 0 C0.721875 0.474375 1.44375 0.94875 2.1875 1.4375 C5.88367791 3.49093217 8.80571187 4 13 4 C7.24756373 8.86744607 1.2882653 9.34248243 -5.9375 9.3125 C-7.09668945 9.33666992 -7.09668945 9.33666992 -8.27929688 9.36132812 C-13.59342595 9.3658202 -17.25349341 8.39537417 -22 6 C-20 5 -20 5 -17.0625 5.9375 C-11.33080982 7.72337399 -4.69376769 7.89792256 1 6 C0.01 5.01 -0.98 4.02 -2 3 C-1.34 2.01 -0.68 1.02 0 0 Z " fill="#AE7D5F" transform="translate(50,27)"/>
<path d="M0 0 C0.66 0.33 1.32 0.66 2 1 C2 1.66 2 2.32 2 3 C0.68 3.33 -0.64 3.66 -2 4 C-1.67 5.65 -1.34 7.3 -1 9 C-3.875 8.6875 -3.875 8.6875 -7 8 C-9 5 -9 5 -8.75 2.875 C-7.1898435 -1.02539124 -3.66304507 -0.15262688 0 0 Z " fill="#E04F22" transform="translate(29,66)"/>
<path d="M0 0 C3.63 0 7.26 0 11 0 C10.67 1.32 10.34 2.64 10 4 C7.69 3.67 5.38 3.34 3 3 C2.67 3.66 2.34 4.32 2 5 C1.34 3.35 0.68 1.7 0 0 Z " fill="#2E0D06" transform="translate(38,66)"/>
<path d="M0 0 C-2.97 0.66 -5.94 1.32 -9 2 C-9 2.99 -9 3.98 -9 5 C-9.3062434 6.33981486 -9.63451555 7.67511887 -10 9 C-14 2.25 -14 2.25 -14 0 C-12.42074025 -0.39180108 -10.83631206 -0.76280736 -9.25 -1.125 C-8.36828125 -1.33382813 -7.4865625 -1.54265625 -6.578125 -1.7578125 C-4 -2 -4 -2 0 0 Z " fill="#F99F65" transform="translate(47,25)"/>
<path d="M0 0 C0.99 0.66 1.98 1.32 3 2 C0.36 2.99 -2.28 3.98 -5 5 C-5 7.64 -5 10.28 -5 13 C-5.33 13 -5.66 13 -6 13 C-6.66 9.37 -7.32 5.74 -8 2 C-5.36 2 -2.72 2 0 2 C0 1.34 0 0.68 0 0 Z " fill="#F99F65" transform="translate(36,19)"/>
<path d="M0 0 C0.66 0.33 1.32 0.66 2 1 C1.979375 2.11375 1.95875 3.2275 1.9375 4.375 C1.73619282 7.83215921 1.73619282 7.83215921 3 10 C2.01 9.67 1.02 9.34 0 9 C-1.125 2.25 -1.125 2.25 0 0 Z " fill="#B48A70" transform="translate(23,21)"/>
<path d="M0 0 C2.31 0 4.62 0 7 0 C7 0.99 7 1.98 7 3 C4.69 3 2.38 3 0 3 C0 2.01 0 1.02 0 0 Z " fill="#F07A41" transform="translate(57,66)"/>
<path d="M0 0 C5.39449293 -0.27429625 8.51925805 -0.36055646 13 3 C10.09905209 4.45047396 8.44027404 3.45356803 5.375 2.5625 C4.37210938 2.27503906 3.36921875 1.98757813 2.3359375 1.69140625 C1.56507812 1.46324219 0.79421875 1.23507812 0 1 C0 0.67 0 0.34 0 0 Z " fill="#9E4435" transform="translate(55,9)"/>
<path d="M0 0 C5.75 -0.125 5.75 -0.125 8 1 C8 1.66 8 2.32 8 3 C5.69 3 3.38 3 1 3 C0.67 2.01 0.34 1.02 0 0 Z " fill="#F48043" transform="translate(23,66)"/>
<path d="M0 0 C1.98 0 3.96 0 6 0 C6 1.32 6 2.64 6 4 C4.35 3.67 2.7 3.34 1 3 C0.67 2.01 0.34 1.02 0 0 Z " fill="#DD4D21" transform="translate(30,52)"/>
<path d="M0 0 C1.98 0 3.96 0 6 0 C6.33 0.99 6.66 1.98 7 3 C4.69 3 2.38 3 0 3 C0 2.01 0 1.02 0 0 Z " fill="#F8914F" transform="translate(29,18)"/>
<path d="M0 0 C2 1 2 1 2 1 Z " fill="#000000" transform="translate(47,94)"/>
</svg>
